#N canvas 72 88 993 615 10;
#X declare -lib zexy;
#X declare -lib mrpeach;
#X obj 466 354 packOSC;
#X obj 322 451 udpsend;
#X msg 144 414 disconnect;
#X obj 322 490 tgl 15 0 empty empty 1=connected 20 8 0 8 -4034 -257985
-1 0 1;
#X obj 186 115 bng 15 250 50 0 empty empty empty 17 7 0 10 -262144
-1 -1;
#X obj 33 46 declare -lib zexy;
#X obj 32 16 declare -lib mrpeach;
#X msg 466 286 send /query \$1;
#X obj 466 244 l2s;
#X obj 153 345 print;
#X msg 329 191 7777;
#X obj 152 262 pack s s f;
#X msg 105 194 connect;
#X msg 185 193 symbol 192.168.1.4;
#X msg 152 294 \$1 \$2 \$3;
#X text 320 170 Specify OSC port;
#X text 189 173 Specify IP address;
#X text 35 114 Starts UDP connection;
#X text 50 388 Disconnects UDP connection;
#X text 498 244 Requires zexy;
#X text 383 451 Requires mrpeach;
#X text 202 13 Sends OSC message to query Audio Commons sounds based
on text search Copyright (c) 2017-2018 \, Mathieu Barthet \, Some Rights
Reserved, f 69;
#X text 460 89 Specify search using keyword(s);
#X msg 466 117 beatles;
#X text 542 151 Check the guidelines of the Audio Commons search API
(http://m2.audiocommons.org/#/search/searchAudioClips) to see whether
it supports a single keyword (e.g. beatles) and/or multiple keywords
separated by spaces (e.g. birds cats). The Python example only supports
ASCII characters., f 54;
#X connect 0 0 1 0;
#X connect 1 0 3 0;
#X connect 2 0 1 0;
#X connect 4 0 13 0;
#X connect 4 0 10 0;
#X connect 4 0 12 0;
#X connect 7 0 0 0;
#X connect 8 0 7 0;
#X connect 10 0 11 2;
#X connect 11 0 14 0;
#X connect 12 0 11 0;
#X connect 13 0 11 1;
#X connect 14 0 9 0;
#X connect 14 0 1 0;
#X connect 23 0 8 0;
